# xmcd
#
# Track frame offsets:
#	150
#	14047
#	25367
#	37448
#	51657
#	62506
#	73869
#	86846
#	99871
#	112512
#	126033
#	139454
#	151684
#	161435
#	172198
#	190413
#	201703
#
# Disc length: 2840 seconds
#
# Revision: 1
# Processed by: cddbd v1.5.2PL0 Copyright (c) Steve Scherf et al.
# Submitted via: audiograbber 1.83.01
#
DISCID=fe0b1611
DTITLE=Deadline - We're taking over
DYEAR=2008
DGENRE=Punk
TTITLE0=Too late tomorrow
TTITLE1=We are not American
TTITLE2=Smell the coffee
TTITLE3=We're taking over
TTITLE4=Blood on your hands (live
TTITLE5=Serious (live)
TTITLE6=Take no chances (live)
TTITLE7=This girl (live)
TTITLE8=Taken for a ride (live)
TTITLE9=Keep on running (live)
TTITLE10=Liar (live)
TTITLE11=Round the corner (live)
TTITLE12=It girl (live)
TTITLE13=Time ran out (live)
TTITLE14=Going nowhere (live)
TTITLE15=Give it back (live)
TTITLE16=The way we were (live)
EXTD=
EXTT0=
EXTT1=
EXTT2=
EXTT3=
EXTT4=
EXTT5=
EXTT6=
EXTT7=
EXTT8=
EXTT9=
EXTT10=
EXTT11=
EXTT12=
EXTT13=
EXTT14=
EXTT15=
EXTT16=
PLAYORDER=
